/* XPM */
static char *_87674daa1e949579749a717702ba8a3NjIDRIiKLzWsEwF5[] = {
/* columns rows colors chars-per-pixel */
"64 55 167 2 ",
"   c None",
".  c #0D0E11",
"X  c #181B20",
"o  c #1D2025",
"O  c #22252B",
"+  c #25282F",
"@  c #262B35",
"#  c #2F333A",
"$  c #31353E",
"%  c #313742",
"&  c #353A44",
"*  c #373D49",
"=  c #393E4A",
"-  c #3D434E",
";  c #414753",
":  c #424956",
">  c #474E5B",
",  c #4B515F",
"<  c #424D60",
"1  c #4A5261",
"2  c #535965",
"3  c #535B6A",
"4  c #585F6E",
"5  c #4D5B76",
"6  c #4E5D78",
"7  c #545F73",
"8  c #515F79",
"9  c #5A6476",
"0  c #54627B",
"q  c #5C6679",
"w  c #5E687A",
"e  c #636B7C",
"r  c #6A6F7B",
"t  c #6B717D",
"y  c #5B6B88",
"u  c #626D83",
"i  c #616E89",
"p  c #667085",
"a  c #6A7384",
"s  c #647189",
"d  c #6A758B",
"f  c #737B8C",
"g  c #787F8D",
"h  c #727E94",
"j  c #7A808D",
"k  c #788295",
"l  c #758199",
"z  c #7A859C",
"x  c #7E899E",
"c  c #7A87A1",
"v  c #7C89A4",
"b  c #7F8EAC",
"n  c #7C93BE",
"m  c #828EA6",
"M  c #808DA8",
"N  c #8691A7",
"B  c #8492AC",
"V  c #8595B5",
"C  c #8A97B2",
"Z  c #8D9AB2",
"A  c #8D9DBD",
"S  c #939FB8",
"D  c #96A2BB",
"F  c #8197C0",
"G  c #8499C2",
"H  c #8A9EC3",
"J  c #8EA0C2",
"K  c #94A3C1",
"L  c #99A7C3",
"P  c #9DAAC5",
"I  c #9BAAC9",
"U  c #9AACD0",
"Y  c #9FB0D1",
"T  c #9FB3DA",
"R  c #A2AEC7",
"E  c #A5B0C7",
"W  c #A9B3C6",
"Q  c #A7B2C8",
"!  c #A8B3C8",
"~  c #A4B5D5",
"^  c #A9B7D4",
"/  c #ABBAD6",
"(  c #A3B7DD",
")  c #ACBDDD",
"_  c #9FB7E6",
"`  c #96B2E8",
"'  c #9AB6EC",
"]  c #9EB9EC",
"[  c #A7BCE4",
"{  c #ABBEE4",
"}  c #A4BDED",
"|  c #A3BDF0",
" . c #B3C1DF",
".. c #AEC0E4",
"X. c #A7C0EF",
"o. c #ACC2EE",
"O. c #B1C2E4",
"+. c #B1C6EF",
"@. c #B5C8EF",
"#. c #BBCCED",
"$. c #ACC3F0",
"%. c #B1C6F1",
"&. c #B6CAF0",
"*. c #BBCDF0",
"=. c #BFD0F1",
"-. c #C0CFEF",
";. c #C4D2EE",
":. c #C5D4F2",
">. c #C4D4F2",
",. c #C6D4F2",
"<. c #C6D5F2",
"1. c #C7D5F2",
"2. c #C7D5F3",
"3. c #C6D5F3",
"4. c #C7D6F3",
"5. c #C3D3F4",
"6. c #C1D2F4",
"7. c #C4D3F4",
"8. c #C5D4F4",
"9. c #C6D5F4",
"0. c #C7D6F5",
"q. c #C2D2F2",
"w. c #C8D6F3",
"e. c #C9D6F3",
"r. c #C9D7F3",
"t. c #CAD7F3",
"y. c #CBD7F2",
"u. c #CAD7F1",
"i. c #C9D7F5",
"p. c #C9D6F3",
"a. c #CAD8F3",
"s. c #CBD8F3",
"d. c #CBD9F3",
"f. c #CBD8F1",
"g. c #CDD9F1",
"h. c #CCD9F3",
"j. c #CFDAF1",
"k. c #CBD8F5",
"l. c #CCD9F4",
"z. c #CDD9F4",
"x. c #CCD9F5",
"c. c #CDDAF4",
"v. c #CDDAF5",
"b. c #CEDAF4",
"n. c #CEDBF4",
"m. c #CFDBF4",
"M. c #CEDBF6",
"N. c #CFDCF7",
"B. c #CFDCF4",
"V. c #CBD9F4",
"C. c #D0DBF1",
"Z. c #D0DCF4",
"A. c #D1DCF4",
"S. c #D1DDF4",
"D. c #D1DDF5",
"F. c #D2DDF5",
"G. c #D3DEF5",
"H. c #D2DEF5",
"J. c #D1DDF6",
"K. c #D2DEF7",
"L. c #D1DEF7",
"P. c #D4DFF5",
"I. c #D4DFF7",
"U. c #D2DCF1",
"Y. c #D5E0F7",
"T. c #D6E1F7",
"R. c #D6E1F8",
/* pixels */
"                            t j j j j j g g g g g g g g g f g f g f f f f f f f f f f f f d f d f e                             ",
"                          r U.T.T.T.F.P.L.F.F.F.F.B.N.k.m.m.k.m.m.i.m.i.i.i.0.i.i.8.8.8.8.:.8.q.5.#.w                           ",
"                          W T.T.F.P.F.F.F.B.B.m.m.m.m.m.m.i.j.s.i.r.r.r.r.8.i.,.:.:.:.:.:.q.q.q.q.q.L                           ",
"                        r C.T.P.P.F.F.Z.F.F.m.m.m.m.k.k.j.d.i.r.i.i.r.r.:.r.:.,.:.>.,.q.q.q.q.q.q.-.#.e                         ",
"                        W T.P.P.F.F.F.Z.m.m.m.m.k.m.k.k.d.r.r.r.r.r.k.:.r.:.:.:.q.:.q.q.q.q.q.=.*.q.5.L                         ",
"                      t C.U.F.F.B.F.n.n.m.m.m.m.j.k.j.r.r.d.r.r.r.r.:.r.:.,.,.,.q.q.q.q.*.q.=.q.q.*.*.#.e                       ",
"                      W R.F.F.F.F.m.B.j.m.k.j.k.k.d.d.d.r.r.r.r.:.i.:.:.,.,.q.,.q.q.q.q.q.=.*.q.*.=.*.q.K                       ",
"                    t j.F.F.F.F.F.m.m.k.m.m.k.m.d.d.d.r.r.r.r.r.:.:.:.:.q.,.q.q.q.q.q.q.#.q.q.*.*.-.*.*.#.9                     ",
"                    W P.F.F.j.B.m.m.m.m.k.m.j.k.s.r.r.r.r.r.r.:.:.:.:.:.,.q.q.q.q.=.q.*.q.=.*.q.*.*.*.*.*.K                     ",
"                  t j.F.F.F.B.B.m.j.m.k.k.d.i.j.r.r.r.r.r.r.:.:.r.:.,.,.q.q.q.q.=.q.=.q.*.=.=.*.*.*.*.*.*.#.q                   ",
"                  W P.Z.B.m.m.m.m.k.k.m.j.d.r.r.s.r.:.r.:.:.:.:.:.q.q.q.q.q.q.=.=.q.=.#.*.=.*.*.*.*.*.*.*.*.K                   ",
"                t j.F.F.F.m.m.m.m.k.m.j.r.r.d.r.r.r.r.r.r.:.:.:.,.,.q.q.q.=.q.;.*.q.*.q.=.=.*.#.*.#.&.*.*.&.@.q                 ",
"                W F.m.m.m.m.k.m.z.z.r.s.r.r.r.r.r.i.,.,.:.:.:.,.q.q.q.q.*.q.*.q.q.*.q.*.*.*.*.*.*.*.&.&.&.&.*.K                 ",
"              t j.B.B.m.m.m.j.k.m.s.s.r.r.r.r.r.r.,.:.:.:.:.,.q.q.q.q.q.q.=.q.q.*.=.*.*.=.*.*.*.*.*.*.&.&.&.@.+.q               ",
"              W L.B.m.m.m.m.k.d.s.s.r.r.r.r.r.:.:.,.:.:.,.q.q.q.q.q.q.q.*.q.=.*.q.*.-.*.*.#.*.*.&.&.#.&.@.@.&.&.K               ",
"            t j.m.m.m.m.k.k.j.d.s.s.r.r.r.r.r.r.:.r.:.:.,.q.q.q.q.q.=.=.q.*.*.=.*.*.*.*.*.*.*.&.&.&.&.&.@.@.@.@.o.q             ",
"            W F.m.m.k.d.k.j.r.j.i.r.r.r.:.:.r.,.q.:.q.:.q.q.q.q.q.=.q.=.=.=.=.*.*.#.*.*.*.*.&.&.#.&.#.&.@.@.+.+.&.K             ",
"          t j.B.m.j.m.k.j.r.d.r.r.r.r.r.i.,.:.,.,.,.:.q.5.q.q.q.=.q.*.q.*.=.*.*.*.*.*.&.*.&.*.#.&.&.@.%.@.+.%.+.+.o.q           ",
"          W N.m.m.k.m.k.k.d.r.r.r.:.i.:.:.:.:.:.,.q.q.q.q.=.q.*.=.=.-.*.*.=.*.*.*.*.*.*.&.&.&.&.@.@.@.+.@.+.+.+.o.%.J           ",
"        t r.m.m.m.k.r.j.r.r.r.r.r.r.r.,.:.,.,.,.q.q.q.q.q.q.*.q.q.*.=.=.*.*.*.*.*.*.&.&.#.&.&.@.@.@.+.@.+.+.o.+.+.o.o.q         ",
"        ! m.m.k.k.d.r.r.r.r.r.r.i.r.:.:.:.:.q.>.q.q.q.=.q.q.*.5.*.=.*.*.*.*.*.#.*.&.&.&.&.@.@.@.@.@.%.@.+.+.+.+.+.o.%.H         ",
"      t d.m.m.k.j.s.d.r.r.r.r.:.:.:.:.:.:.:.q.q.q.q.q.q.*.*.q.=.=.*.-.*.*.*.&.*.#.&.&.&.@.@.@.@.+.+.+.+.+.o.o.+.o.o.o.o.0       ",
"      ! m.m.d.r.j.i.r.r.r.:.:.r.:.:.:.q.,.q.q.q.q.*.=.q.q.*.=.*.*.*.*.*.*.#.*.*.&.&.*.@.@.@.@.@.+.+.+.+.+.%.+.o.o.o.o.$.J       ",
"    t r.k.k.j.r.r.r.r.:.r.i.r.r.:.:.,.q.q.q.q.q.q.q.=.=.-.=.=.*.*.*.*.*.*.*.&.&.&.&.#.@.@.@.@.%.+.%.+.o.o.o.o.o.o.o.o.o.} 0     ",
"    ! m.m.r.r.r.r.r.r.r.i.:.:.:.:.8.i.:.q.7.q.-.q.-.q.=.5.q.=.*.q.*.&.*.*.&.*.*.&.&.&.&.&.%.%.%.+.+.+.o.+.o.o.o.o.o.o.} $.H     ",
"  a r.j.j.r.r.r.r.r.i.,.:.:.:.8./ f k  .;.m S #.z ^ I Z B D d x B I *.C e I V 9 h ) v A l o.b U %.$.O.+.o.o.o.o.} o.o.o.} } 0   ",
"# W m.i.r.r.r.r.r.:.,.,.:.:.8.0.Z $ 2 4 ^ O - ^ O ; p 3 : p O d 1 z L $ i z % s * y - u . u : b %.$.o.o.o.o.o.o.o.o.} } } | H @ ",
"2 ;.r.k.r.r.r.i.:.r.:.,.:.:.:.8.Z > N - f @ + m & > X 3 : p O d 1 z v - ..m & { q < - u % = X b &.o.o.o.o.o.o.o.o.} o.} } | [ < ",
"# W k.r.r.r.r.:.r.:.,.q.,.q.q.8.D $ ; x 3 e 1 e , P : 9 3 h # u 4 = v > = c < = & B 1 d 7 A @ V %.o.o.o.o.} o.} } o.} } } } H @ ",
"  t r.i.:.r.r.:.:.,.,.,.:.q.q.q.#.^ ) #.) #.#.) ) #.O.) ) O.~ ~ ) Y ....I { { K T +.T [ ( $.T [ $.o.o.o.o.o.} o.o.} } } } } 0   ",
"    E k.i.:.:.r.:.,.q.q.q.q.q.q.;.q.=.q.-.=.*.=.*.*.*.*.*.*.*.&.&.&.&.&.&.&.%.&.%.+.%.+.$.o.o.$.o.o.o.o.o.} X.X.} } } } | G     ",
"    r :.r.,.:.:.:.,.,.q.q.q.q.=.-.;.*.=.#.-.*.=.#.*.*.*.*.#.&.&.&.&.@.+.@.%.+.+.+.+.+.o.+.o.o.o.o.o.o.} X.X.} } } } } } } 0     ",
"      E i.:.:.:.q.q.,.q.5.q.-.q.q.=.=.*.*.*.*.*.*.*.#.*.&.&.&.%.%.@.@.+.+.+.+.%.+.o.o.o.o.o.o.o.o.o.} o.} } } } } } } } F       ",
"      e ,.:.:.q.q.q.q.q.*.q.=.5.*.q.*.q.=.#.*.*.&.*.&.&.&.*.@.@.@.@.+.+.+.+.+.+.+.o.+.o.o.o.o.o.o.} o.} } } } } } } } } 8       ",
"        R 8.,.q.q.q.q.*.q.*.=.*.*.q.*.*.*.*.*.*.*.&.*.&.#.&.@.@.@.&.+.+.+.%.o.+.o.+.o.o.o.o.o.} o.} } } } } } } } } } F         ",
"        e ;.q.,.q.q.q.=.q.q.-.=.*.*.*.*.*.*.&.*.&.*.&.&.@.@.@.@.+.+.+.+.+.o.+.o.O.o.o.o.o.o.} o.} o.} } } } } } } } ] 8         ",
"          R 8.q.q.q.*.q.*.q.*.-.*.=.#.*.&.*.*.#.#.&.&.&.@.@.+.+.+.+.+.o.o.+.o.o.o.o.o.o.o.X.o.X.o.} } } } } } ] ] } G           ",
"          e #.q.q.*.*.q.q.*.*.*.*.*.*.*.*.*.&.&.&.&.@.@.@.@.+.@.+.+.+.+.+.o.o.o.o.o.o.X.} o.} } } } } } } } } ] } ] 8           ",
"            P 7.q.q.q.*.q.*.*.*.*.*.*.*.*.&.&.&.&.@.@.@.+.@.+.+.+.o.+.o.+.o.o.o.o.} } o.o.} } } } } } } } } ] } ] F             ",
"            e -.#.*.q.*.*.-.*.*.*.*.#.&.#.&.&.@.@.@.@.+.@.+.+.%.+.+.+.o.o.o.o.o.o.o.o.X.o.} } } } } } } } ] ] ] ] 8             ",
"              P 5.=.*.*.*.*.*.*.*.*.#.&.&.&.@.@.@.+.+.+.+.+.+.o.o.o.o.o.o.o.o.o.} o.} } } } } } } } } ] } ] ] } F               ",
"              e #.*.*.=.*.*.*.&.*.&.*.&.&.&.@.@.@.@.@.+.@.o.+.+.o.+.o.o.o.o.} o.o.} o.} } } } } } ] } } ] ] ] ' 8               ",
"                L *.*.*.*.*.*.*.@.*.@.&.@.@.@.@.@.+.+.+.+.+.o.o.o.o.o.o.} o.o.o.} o.} } } } } ] ] } } ] ] ] ] F                 ",
"                e #.*.*.*.*.&.#.&.&.&.@.@.@.@.+.+.+.+.+.o.o.+.o.o.o.o.o.o.o.} } o.} } } } } } } } ] ] ] ] ] ' 6                 ",
"                  K =.*.*.&.&.#.&.&.@.@.@.+.@.+.+.o.+.o.o.+.o.o.o.o.o.o.} } } o.} } } } ] } } ] ] ] ] ] ] ] n                   ",
"                  e #.&.&.*.&.&.@.@.@.@.@.+.+.+.+.+.o.+.o.o.o.o.o.o.o.o.} o.} o.} } } } } ] ] } ] ] ] ] ] ' 6                   ",
"                    L *.&.&.&.@.@.@.@.%.+.+.+.o.o.+.o.+.o.o.o.} o.o.} } o.} } } } } } } } ] } ] ] ] ] ' ] n                     ",
"                    9 @.*.&.@.@.@.@.@.+.+.+.+.%.+.+.o.o.o.o.o.o.o.} o.} } } } } } } } } ] ] ] ] ] ' ] ' ` 6                     ",
"                      K &.@.@.@.@.+.@.+.o.%.o.+.o.o.o.o.o.X.o.X.} o.} } } } } } } ] | | ] ] ] ] ] ] ' ' n                       ",
"                      q +.@.@.@.+.@.+.+.+.+.+.o.o.o.o.o.o.o.} o.o.} } } } } } } } | ] ] ] ] ] ' ' ' ' ` 6                       ",
"                        D @.+.@.+.+.+.+.o.+.o.+.o.o.o.o.o.} o.} } } } } } } } ] ] ] ] ] ] ] ' ' ' ' ] n                         ",
"                        9 +.+.+.%.o.+.+.o.o.o.o.o.o.o.o.X.o.} X.} } } } } ] | | } ] ] ] ] ] ' ' ' ' ` 5                         ",
"                          H &.%.+.o.+.o.o.o.o.o.o.o.X.X.} o.X.} o.} } } | ] ] ] ] ] ] ] ' ' ' ' ' ' n                           ",
"                          9 o.%.$.+.%.$.%.$.o.$.o.X.$.o.X.X.X.X.} } | | | ] | ] ] ] ] ] ' ' ' ' ' ` 5                           ",
"                            q s s s s s s s s i s y s y y i y u y i y y y y y y y y y y y y y y y 5                             "
};
