/* XPM */
static char *_e7c1455ca694197c93824d40bee9ad0N6IcGXnCthFX5Hl4[] = {
/* columns rows colors chars-per-pixel */
"32 28 143 2 ",
"   c None",
".  c #4C5566",
"X  c #545C6C",
"o  c #576174",
"O  c #5C6475",
"+  c #5C6679",
"@  c #5E687C",
"#  c #646D80",
"$  c #677184",
"%  c #697284",
"&  c #6A768C",
"*  c #727B8D",
"=  c #6D7A93",
"-  c #727D93",
";  c #6E7FA0",
":  c #748199",
">  c #7D889C",
",  c #6F81A4",
"<  c #6E83AA",
"1  c #7585A4",
"2  c #7988A6",
"3  c #7E8CA8",
"4  c #748BB5",
"5  c #7E95BF",
"6  c #7C94C0",
"7  c #828FAA",
"8  c #8992A5",
"9  c #8492AB",
"0  c #8A95AA",
"q  c #949CAD",
"w  c #8797B7",
"e  c #8196BF",
"r  c #99A1B1",
"t  c #95A1B9",
"y  c #A3ABBC",
"u  c #8297C0",
"i  c #8599C0",
"p  c #8A9DC1",
"a  c #8EA0C2",
"s  c #9FABC5",
"d  c #8DA5D4",
"f  c #90A6D1",
"g  c #94A9D2",
"h  c #99ADD3",
"j  c #9EB1D5",
"k  c #A2ADC5",
"l  c #A6B0C6",
"z  c #AAB3C6",
"x  c #A3B4D7",
"c  c #AEBCD7",
"v  c #A6B6D8",
"b  c #AABADB",
"n  c #B1BDD7",
"m  c #9AB6EC",
"M  c #9EB9ED",
"N  c #AABDE3",
"B  c #A4BDED",
"V  c #B4C0D7",
"C  c #B7C2D9",
"Z  c #BAC5DB",
"A  c #BDC8DD",
"S  c #A7C0EF",
"D  c #ACC2EE",
"F  c #B4C3E3",
"G  c #B8C6E4",
"H  c #B8C8E6",
"J  c #B1C6EF",
"K  c #B5C9EF",
"L  c #BBCCED",
"P  c #ACC3F0",
"I  c #B1C7F1",
"U  c #B6CAF0",
"Y  c #BBCDF0",
"T  c #BFD0F1",
"R  c #C0C9DE",
"E  c #C0D1F1",
"W  c #C1D1F1",
"Q  c #C0D0F1",
"!  c #C2D1F1",
"~  c #C2D2F1",
"^  c #C0D0F2",
"/  c #C0D1F2",
"(  c #C1D1F2",
")  c #C1D2F3",
"_  c #C2D2F2",
"`  c #C3D2F2",
"'  c #C3D3F2",
"]  c #C3D3F3",
"[  c #C4D3F0",
"{  c #C4D3F1",
"}  c #C4D3F2",
"|  c #C4D3F3",
" . c #C4D4F2",
".. c #C5D4F2",
"X. c #C5D4F3",
"o. c #C6D4F2",
"O. c #C6D5F2",
"+. c #C7D5F2",
"@. c #C7D5F3",
"#. c #C7D6F3",
"$. c #C3D3F4",
"%. c #C4D4F4",
"&. c #C5D4F4",
"*. c #C6D5F4",
"=. c #C7D6F4",
"-. c #C8D5F1",
";. c #C9D6F1",
":. c #C8D6F3",
">. c #C9D6F3",
",. c #C9D7F3",
"<. c #CBD7F2",
"1. c #CAD7F3",
"2. c #C8D7F4",
"3. c #C9D7F4",
"4. c #C9D7F5",
"5. c #CAD8F3",
"6. c #CBD8F3",
"7. c #CBD9F3",
"8. c #CDD9F2",
"9. c #CCD9F3",
"0. c #CEDAF3",
"q. c #CAD8F5",
"w. c #CBD9F5",
"e. c #CCD9F4",
"r. c #CDD9F4",
"t. c #CDDAF4",
"y. c #CCDAF5",
"u. c #CDDAF5",
"i. c #CEDAF4",
"p. c #CEDBF4",
"a. c #CFDBF4",
"s. c #CEDBF5",
"d. c #CFDCF6",
"f. c #D0DCF3",
"g. c #D0DCF4",
"h. c #D1DDF5",
"j. c #D2DDF4",
"k. c #D0DCF6",
"l. c #D1DDF6",
"z. c #D2DEF6",
"x. c #D3DFF7",
"c. c #D4DFF6",
"v. c #D5E0F7",
/* pixels */
"              y z z z z l l k k k k k k k s s s t               ",
"            r c.x.x.x.c.k.g.p.p.g.w.4.3.=.+.{ $.$.0             ",
"            R c.g.g.g.p.p.r.r.3.3.3.=.$.{ { ! ) T b             ",
"          q h.h.g.p.p.p.r.3.;.3.{ ;.$.{ ) ! Q ) Y Y 0           ",
"          R h.h.p.p.r.<.3.3.;.3.+.{ { ) ) Q ) L Y Y b           ",
"        q h.f.h.p.p.<.3.;.3.{ @.+.$.) { Q Q ) Y Y Y K 7         ",
"        Z h.p.p.p.3.3.;.3.;.{ { ) ) ! ) Q Y Y Y Y U U v         ",
"      q t.t.t.w.3.;.3.3.=.{ { { ) ) Q L L Y Y L U U U I 3       ",
"      Z p.p.3.t.;.3.=.{ { { { ) ) Q Q Y Y Y Y U L U K I j       ",
"    0 t.p.p.3.3.3.;.+.{ { { ) Q Y Q Y Y Y Y U U K K K J D 2     ",
"    Z f.p.;.3.;.;.+.+.{ ) ) $.T Q Y Y Y U U U U K J J I J h     ",
"  0 ;.t.3.;.=.=.=.$.$.$.) $.Y T Y Y Y Y Y U I I J I D D D D 1   ",
"  V p.;.3.=.;.+.F G H G G G C b F J b v N b N N I I D D D P g   ",
"8 <.w.3.;.+.{ { * % % % X O O X - - * @ O o . = D D D D B B B 1 ",
"8 ;.;.;.+.+.) { > * % % - # & @ & = : $ & & & - D D D B P B B = ",
"  n 3.+.+.) ) ) L L Q L L L L J F F J D J D J B J B P B B B d   ",
"  8 { +.[ ) ! ) Q ) Y L L Y U U U K J J I D J D D B B B B B ,   ",
"    c { ) ! Q ) Y Y Y Y U Y U U I I J I D D D B B D B B B d     ",
"    0 ! ! Q ) L Y Y Y Y U U K J J J D D J D D B D B B B M ,     ",
"      b { L ) Y Y Y U U K U K K J I D D D B B B B B B B d       ",
"      9 L ) Y Y Y Y U L K K J I D D D B P B B B B B B M 1       ",
"        b Y L Y U U K K K I D D D D D D B B B B M M M d         ",
"        9 L Y U U K K I J D D D D D B D B B B B B m m ,         ",
"          b U U K K J J K D D D D D B B B B B B M M d           ",
"          9 K K U I I I D D D S S S B B B B M M m m <           ",
"            v U I P D D D D D S B B B B M M M m m d             ",
"            9 I I I P P P P P S S B B B B M M M m <             ",
"              w a a a p p p i i i u u u 6 6 6 6 4               "
};
