/* XPM */
static char *b641e8dd4bd84007a4106bbb830c42af8iJdf41fX78m5myd[] = {
/* columns rows colors chars-per-pixel */
"19 16 188 2 ",
"   c None",
".  c #7D889F",
"X  c #7A87A1",
"o  c #7A88A3",
"O  c #7E8BA5",
"+  c #7990BA",
"@  c #7D93BC",
"#  c #828DA4",
"$  c #818EA6",
"%  c #8792A9",
"&  c #8693AD",
"*  c #8694AF",
"=  c #8A95AB",
"-  c #8393B1",
";  c #8293B2",
":  c #8594B2",
">  c #8B97B0",
",  c #8A97B1",
"<  c #8A98B3",
"1  c #8B9AB7",
"2  c #8196BF",
"3  c #8F9FBD",
"4  c #909CB4",
"5  c #91A1BF",
"6  c #96A3BE",
"7  c #8499C0",
"8  c #869AC0",
"9  c #8C9EC0",
"0  c #829BC9",
"q  c #97A4C0",
"w  c #9DAAC3",
"e  c #97A9CC",
"r  c #8CA5D5",
"t  c #8EA6D4",
"y  c #90A8D5",
"u  c #92A9D5",
"i  c #94ABD5",
"p  c #96ACD6",
"a  c #99AED6",
"s  c #9BAFD6",
"d  c #90AADA",
"f  c #94ADDC",
"g  c #9EB1D7",
"h  c #98B0DE",
"j  c #A3AEC4",
"k  c #A5AFC5",
"l  c #A7B0C2",
"z  c #A7B0C3",
"x  c #A6B0C5",
"c  c #A5B2CE",
"v  c #A0B5DF",
"b  c #A7B9DE",
"n  c #ABBCDE",
"m  c #ADBDDE",
"M  c #B5BED1",
"N  c #B1BFDA",
"B  c #B0BEDB",
"V  c #9AB6EB",
"C  c #9DB8EB",
"Z  c #9EBAED",
"A  c #A3B8E1",
"S  c #A4B9E0",
"D  c #A1BBEC",
"F  c #A0BBED",
"G  c #A1BBED",
"H  c #A1BBEE",
"J  c #A3BCED",
"K  c #A3BDED",
"L  c #A2BCEE",
"P  c #A3BDEE",
"I  c #A4BDEC",
"U  c #A4BDED",
"Y  c #A5BEED",
"T  c #A6BEED",
"R  c #A6BFED",
"E  c #A7BFED",
"W  c #A5BEEE",
"Q  c #A5BFEE",
"!  c #B3C0DA",
"~  c #B5C1DB",
"^  c #B6C2DB",
"/  c #B8C4DB",
"(  c #BAC5DC",
")  c #BCC6DC",
"_  c #BEC8DD",
"`  c #A7C0EE",
"'  c #A8C0EE",
"]  c #A9C0EE",
"[  c #A9C1EE",
"{  c #A8C0EF",
"}  c #AAC1EE",
"|  c #ABC2EE",
" . c #AAC2EF",
".. c #ABC2EF",
"X. c #ACC3EE",
"o. c #ADC3EE",
"O. c #ADC4EE",
"+. c #ADC4EF",
"@. c #AEC4EE",
"#. c #AFC4EE",
"$. c #AEC4EF",
"%. c #AFC5EF",
"&. c #B2C1E0",
"*. c #B8C6E2",
"=. c #B9C7E2",
"-. c #B8C7E5",
";. c #BFCBE4",
":. c #B0C5EF",
">. c #B1C6EF",
",. c #B2C7EE",
"<. c #B2C6EF",
"1. c #B2C7EF",
"2. c #B3C7EF",
"3. c #B4C8EF",
"4. c #B5C8EF",
"5. c #B5C9EF",
"6. c #B7CAEE",
"7. c #BACCEF",
"8. c #AEC5F0",
"9. c #AFC5F0",
"0. c #B0C6F1",
"q. c #B2C7F0",
"w. c #B2C7F1",
"e. c #B4C9F1",
"r. c #B6CAF0",
"t. c #B7CAF0",
"y. c #B6CAF1",
"u. c #B7CAF1",
"i. c #B7CBF1",
"p. c #B8CAF0",
"a. c #B8CBF0",
"s. c #B9CBF0",
"d. c #B8CBF1",
"f. c #BACCF0",
"g. c #BBCCF0",
"h. c #BACDF2",
"j. c #BCCDF0",
"k. c #BCCEF0",
"l. c #BDCEF0",
"z. c #BCCEF1",
"x. c #BECFF0",
"c. c #BECFF1",
"v. c #BFCFF1",
"b. c #BCCEF3",
"n. c #BECFF2",
"m. c #BED0F3",
"M. c #C1CCE3",
"N. c #C2CDE2",
"B. c #C1D1F0",
"V. c #C0D0F1",
"C. c #C0D1F1",
"Z. c #C1D1F1",
"A. c #C2D1F1",
"S. c #C0D1F2",
"D. c #C0D1F3",
"F. c #C2D2F2",
"G. c #C3D2F2",
"H. c #C2D2F3",
"J. c #C3D3F3",
"K. c #C4D3F2",
"L. c #C5D4F2",
"P. c #C4D4F3",
"I. c #C5D4F3",
"U. c #C6D5F2",
"Y. c #C6D5F3",
"T. c #C7D5F3",
"R. c #C7D6F3",
"E. c #C5D4F4",
"W. c #C8D6F2",
"Q. c #C8D6F3",
"!. c #C9D7F3",
"~. c #CAD7F2",
"^. c #CAD7F3",
"/. c #C8D6F4",
"(. c #CAD8F3",
"). c #CBD8F3",
"_. c #CBD9F3",
"`. c #CCD9F3",
"'. c #CEDAF3",
"]. c #CAD8F4",
"[. c #CCD9F4",
"{. c #CEDAF4",
"}. c #CEDBF4",
"|. c #CEDBF5",
" X c #D1DDF4",
".X c #D0DCF5",
"XX c #D1DDF5",
"oX c #D2DDF6",
/* pixels */
"        M _ ) ) / ^ ^ N N N c         ",
"      l XXXXXX|.[.].R.^.K.J.x.6       ",
"      N.XX[.(.^.^.R.J.K.J.x.x.m       ",
"    l '.[.'.(.R.R.J.J.7.x.x.g.6.5     ",
"    N.[.[.].^.R.J.J.J.m.g.s.s.y.b     ",
"  x (.(.^.^.K.J.J.x.x.g.s.s.6.q.o.9   ",
"  ;.[.^.R.R.J.J.x.x.g.g.s.y.q.$.o.v   ",
"k ^.^.R.*.= % # X # < O X o S $.| | 8 ",
"k ^.K.E.-.1 , , & * 1 : - - A 8.Q Q 2 ",
"  =.K.J.J.J.b.x.g.s.q.q.q.8.| Q Q h   ",
"  w K.V.x.7.s.s.y.2.:.$.| | Q J D 2   ",
"    m x.x.s.s.6.q.$.$.| | Q J J f     ",
"    q 7.7.y.2.:.8.o.| | Q J D C @     ",
"      n y.y.:.:.o.| Q Q D Z Z d       ",
"      3 :.q.8.8.| E Q J D Z V +       ",
"        e g s a p i u u r r 0         "
};
